<svg width="152" height="35" xmlns="http://www.w3.org/2000/svg"><g fill="#0A0B13" fill-rule="evenodd"><path d="M124.268 11.572c0 .896-.2 1.74-.602 2.534A7.098 7.098 0 0 1 122 16.234a9.876 9.876 0 0 1-2.492 1.582c-.952.43-1.988.719-3.108.868.28.84.62 1.703 1.022 2.59.401.887.835 1.74 1.302 2.562a23.74 23.74 0 0 0 1.456 2.268c.504.69.999 1.26 1.484 1.708a2.351 2.351 0 0 1-.406.56c-.177.187-.383.36-.616.518a3.86 3.86 0 0 1-.728.392 1.89 1.89 0 0 1-.714.154c-.41 0-.803-.196-1.176-.588-.373-.392-.751-1.013-1.134-1.862-.383-.85-.784-1.95-1.204-3.304a122.8 122.8 0 0 1-1.386-4.886h-.616c-.205 0-.364-.019-.476-.056a1.583 1.583 0 0 1-.42-.392 74.284 74.284 0 0 0-1.344 3.052 52.518 52.518 0 0 0-1.05 2.758 44.71 44.71 0 0 0-.812 2.576c-.233.83-.434 1.675-.602 2.534a3.923 3.923 0 0 1-1.652-.812c-.467-.392-.905-.943-1.316-1.652.075-.168.154-.331.238-.49.084-.159.191-.383.322-.672.13-.29.294-.658.49-1.106l.784-1.792c.327-.747.719-1.661 1.176-2.744l1.666-3.948c.299-.69.555-1.297.77-1.82.215-.523.406-1.022.574-1.498.168-.476.322-.952.462-1.428s.285-1.022.434-1.638c-.859.299-1.657.63-2.394.994-.737.364-1.349.751-1.834 1.162a2.356 2.356 0 0 1-.518-.504 5.377 5.377 0 0 1-.49-.742c-.15-.27-.28-.546-.392-.826a2.665 2.665 0 0 1-.196-.756c.56-.373 1.246-.719 2.058-1.036a22.16 22.16 0 0 1 2.59-.826 25.157 25.157 0 0 1 2.8-.546 19.75 19.75 0 0 1 2.66-.196c2.24 0 3.976.462 5.208 1.386 1.232.924 1.848 2.189 1.848 3.794zm-6.832-2.352c-.13.168-.336.504-.616 1.008-.28.504-.602 1.106-.966 1.806s-.747 1.46-1.148 2.282c-.401.821-.789 1.633-1.162 2.436 1.4 0 2.688-.13 3.864-.392 1.176-.261 2.193-.63 3.052-1.106.859-.476 1.526-1.036 2.002-1.68a3.52 3.52 0 0 0 .714-2.142c0-.933-.336-1.647-1.008-2.142-.672-.495-1.708-.742-3.108-.742-.317 0-.635.014-.952.042-.317.028-.653.06-1.008.098l.336.532zm9.128 18.76c-1.064-.112-1.913-.579-2.548-1.4s-.952-1.867-.952-3.136c0-.747.112-1.521.336-2.324.224-.803.541-1.582.952-2.338.41-.756.896-1.47 1.456-2.142.56-.672 1.167-1.25 1.82-1.736 1.027-.765 1.988-1.148 2.884-1.148.597.317 1.185.98 1.764 1.988.093 0 .177-.005.252-.014a1.93 1.93 0 0 1 .252-.014c.99 0 1.484.877 1.484 2.632a9.734 9.734 0 0 1-.574 3.346 10.156 10.156 0 0 1-1.596 2.87 9.507 9.507 0 0 1-2.436 2.17 9.665 9.665 0 0 1-3.094 1.246zm1.428-8.82c-.317.43-.616.896-.896 1.4-.28.504-.523 1.013-.728 1.526a10.455 10.455 0 0 0-.476 1.484c-.112.476-.168.9-.168 1.274 0 .448.075.877.224 1.288.15.41.317.644.504.7a6.107 6.107 0 0 0 2.31-1.05 7.601 7.601 0 0 0 1.82-1.918 9.526 9.526 0 0 0 1.204-2.604c.29-.97.434-2.007.434-3.108 0-.485-.028-.868-.084-1.148a2.116 2.116 0 0 0-.28-.728 6.034 6.034 0 0 0-2.198 1.176c-.644.541-1.2 1.11-1.666 1.708zm13.72-5.236c.373 0 .803.112 1.288.336.485.224.915.513 1.288.868a25.604 25.604 0 0 0-.35-2.114 13.77 13.77 0 0 0-.616-2.058c-.27-.71-.63-1.484-1.078-2.324a51.741 51.741 0 0 0-1.68-2.884c.056-.168.182-.364.378-.588.196-.224.42-.434.672-.63.252-.196.513-.369.784-.518.27-.15.527-.243.77-.28.523.579 1.017 1.302 1.484 2.17.467.868.877 1.801 1.232 2.8.355.999.63 2.03.826 3.094.196 1.064.294 2.081.294 3.052 0 .97-.107 1.97-.322 2.996a18.891 18.891 0 0 1-.896 3.01c-.383.98-.826 1.909-1.33 2.786a15.614 15.614 0 0 1-1.638 2.352c-.588.69-1.2 1.255-1.834 1.694-.635.439-1.27.714-1.904.826-1.288-.15-2.273-.565-2.954-1.246s-1.022-1.62-1.022-2.814c0-.635.098-1.325.294-2.072.196-.747.457-1.489.784-2.226a17.26 17.26 0 0 1 1.148-2.156c.439-.7.905-1.33 1.4-1.89.495-.56.994-1.036 1.498-1.428.504-.392.999-.644 1.484-.756zm-2.856 13.468c.653-.224 1.307-.719 1.96-1.484s1.241-1.666 1.764-2.702a17.983 17.983 0 0 0 1.274-3.332c.327-1.185.49-2.329.49-3.43v-.588a.92.92 0 0 0-.028-.224c-.448.187-.924.504-1.428.952a16.05 16.05 0 0 0-1.512 1.554c-.504.588-.98 1.227-1.428 1.918-.448.69-.85 1.381-1.204 2.072a13.3 13.3 0 0 0-.84 1.988c-.205.635-.308 1.195-.308 1.68 0 .933.42 1.465 1.26 1.596zm9.66.672c-.299-.037-.611-.163-.938-.378-.327-.215-.537-.453-.63-.714a5 5 0 0 1 .098-.868c.065-.355.145-.714.238-1.078.093-.364.187-.71.28-1.036.093-.327.159-.574.196-.742.224 0 .509.056.854.168.345.112.7.266 1.064.462.364.196.71.42 1.036.672.327.252.574.509.742.77a5.217 5.217 0 0 1-.644 1.064c-.261.336-.537.63-.826.882-.29.252-.565.448-.826.588-.261.14-.476.21-.644.21z"/><path d="M76.625 33.242c-1.33-1.184-2.712-2.232-4.06-3.347-1.382-1.251-2.177-3.212-3.628-4.548-1.347-1.319-2.92-1.69-4.232-3.195-.864-1.065-1.261-2.468-2.246-3.432-.829-.778-1.796-.913-2.747-.473-1.675.879-2.349.186-3.593-1.353-2.263-2.79-4.612-5.714-5.994-9.213-.19-.575-.622-.829-1.14-.49-1.4.845-2.229 2.028-2.73 3.567C44.58 7.19 44.84 1.612 40.9.259c-2.004-.625-3.973-.067-5.597 1.116-2.557 1.843-2.954 5.613-4.924 7.912-1.07 1.318-2.332 1.318-3.438 2.434-1.347 1.268-2.798 2.52-4.094 3.855-1.624 1.673-2.436 3.482-4.889 3.364-1.416 0-2.746-.423-4.146-.355-2.677.135-4.854 4.04-6.305 6.204-2.246 3.567-3.922 6.982-7.48 9.146-.07 0 0 .22.155.152 2.419-1.116 4.354-2.806 6.133-4.953.864-1.048 1.693-2.096 2.643-3.145 1.503-1.758 2.73-2.502 4.906-2.502 1.227 0 2.367.203 3.593.339 1.503.236 2.764-.829 3.887-1.742-.259.609-.57 1.251-.812 1.81-.812 1.96-.5 4.462-1.744 6.203-.173.288.12.626.328.423.967-1.183 2.47-1.606 3.524-2.722a19.098 19.098 0 0 0 2.747-3.888c1.434-2.671 3.68-5.528 4.405-8.537.224-.152.38-.288.656-.355.605-.338 1.227-.693 1.849-1.184.138.626.95.846 1.313.136 1.97-3.263 3.351-6.982 5.718-9.991.38.76.673 1.622 1.105 2.45-.034 1.54.294 3.078.294 4.6 0 2.248-.38 4.344-.328 6.592.173 4.666 1.624 8.436-.743 12.848-.19.338.242.677.518.423 2.73-3.584 4.975-6.999 5.338-11.699.121-.135.19-.202.311-.338.553-.625 1.002-1.42 1.382-2.248.743-1.538 1.676-2.857 2.592-4.176.259.71.552 1.336.811 1.961-.172.406-.259.98-.172 1.471.362 1.758 0 3.702-.087 5.444-.069 2.028-.069 3.77-.915 5.646-.225.423.172.845.553.626 1.554-.829 3.126-3.145 3.99-5.021.19 0 .363-.085.501-.085.967-.27 1.97-.338 2.85-.896.864.27 1.693.355 2.419 0 1.33-.625 2.038 1.47 2.781 2.384.553.76 1.814 1.386 2.177 2.367.31.98.812 1.622 1.417 2.248 3.005 3.077 6.15 4.26 9.915 5.799.588.186 1.02-.694.588-1.133z" fill-rule="nonzero"/></g></svg>